<svg xmlns="http://www.w3.org/2000/svg" width="14" height="12" viewBox="0 0 14 12">
    <path fill="#50535A" fill-rule="evenodd" stroke="#50535A" stroke-width=".4" d="M9.61 1c.898 0 1.65.62 1.842 1.451.016.03.026.064.026.102 0 .118-.098.215-.218.215s-.218-.096-.218-.216v-.007c-.14-.607-.662-1.068-1.303-1.123l-.129-.006H2.89c-.772 0-1.404.588-1.465 1.336l-.005.12v6.656c0 .764.594 1.39 1.35 1.451l.12.005h6.72c.655 0 1.21-.424 1.4-1.01.007-.116.102-.208.22-.208.12 0 .217.096.217.215 0 .043-.013.084-.034.117l.018-.072-.024.083c-.233.708-.88 1.23-1.658 1.286l-.139.005H2.89c-1 0-1.819-.77-1.886-1.744L1 9.528V2.872c0-.99.777-1.802 1.76-1.868L2.891 1h6.72zm1.143 3.05c.093-.102.267-.102.374-.013h0L12.93 6.02c.093.09.093.242 0 .331h0l-1.803 1.984c-.053.064-.12.09-.2.09-.067.012-.134-.013-.174-.064l-.014-.013c-.106-.089-.106-.242-.013-.344h0l1.416-1.564H7.266C7.12 6.44 7 6.326 7 6.186s.12-.254.267-.254h4.875l-1.416-1.565c-.067-.101-.053-.229.027-.317h0z"/>
</svg>
