<svg width="122" height="18" viewBox="0 0 122 18" fill="none" xmlns="http://www.w3.org/2000/svg">
<path d="M9 15.0745L13.3649 17.8368C14.1642 18.343 15.1424 17.5947 14.932 16.6482L13.7751 11.4537L17.6351 7.95405C18.3398 7.31575 17.9611 6.10517 17.0356 6.02813L11.9555 5.57692L9.96763 0.66857C9.61003 -0.222857 8.38997 -0.222857 8.03237 0.66857L6.04451 5.56591L0.964434 6.01713C0.038871 6.09416 -0.339768 7.30474 0.364921 7.94305L4.22494 11.4427L3.06799 16.6372C2.85763 17.5837 3.83578 18.332 4.63513 17.8258L9 15.0745Z" fill="#F8E329"/>
<path d="M35 15.0745L39.3649 17.8368C40.1642 18.343 41.1424 17.5947 40.932 16.6482L39.7751 11.4537L43.6351 7.95405C44.3398 7.31575 43.9611 6.10517 43.0356 6.02813L37.9555 5.57692L35.9676 0.66857C35.61 -0.222857 34.39 -0.222857 34.0324 0.66857L32.0445 5.56591L26.9644 6.01713C26.0389 6.09416 25.6602 7.30474 26.3649 7.94305L30.2249 11.4427L29.068 16.6372C28.8576 17.5837 29.8358 18.332 30.6351 17.8258L35 15.0745Z" fill="#F8E329"/>
<path d="M61 15.0745L65.3649 17.8368C66.1642 18.343 67.1424 17.5947 66.932 16.6482L65.7751 11.4537L69.6351 7.95405C70.3398 7.31575 69.9611 6.10517 69.0356 6.02813L63.9555 5.57692L61.9676 0.66857C61.61 -0.222857 60.39 -0.222857 60.0324 0.66857L58.0445 5.56591L52.9644 6.01713C52.0389 6.09416 51.6602 7.30474 52.3649 7.94305L56.2249 11.4427L55.068 16.6372C54.8576 17.5837 55.8358 18.332 56.6351 17.8258L61 15.0745Z" fill="#F8E329"/>
<path d="M87 15.0745L91.3649 17.8368C92.1642 18.343 93.1424 17.5947 92.932 16.6482L91.7751 11.4537L95.6351 7.95405C96.3398 7.31575 95.9611 6.10517 95.0356 6.02813L89.9555 5.57692L87.9676 0.66857C87.61 -0.222857 86.39 -0.222857 86.0324 0.66857L84.0445 5.56591L78.9644 6.01713C78.0389 6.09416 77.6602 7.30474 78.3649 7.94305L82.2249 11.4427L81.068 16.6372C80.8576 17.5837 81.8358 18.332 82.6351 17.8258L87 15.0745Z" fill="#F8E329"/>
<path d="M113 15.0745L117.365 17.8368C118.164 18.343 119.142 17.5947 118.932 16.6482L117.775 11.4537L121.635 7.95405C122.34 7.31575 121.961 6.10517 121.036 6.02813L115.955 5.57692L113.968 0.66857C113.61 -0.222857 112.39 -0.222857 112.032 0.66857L110.045 5.56591L104.964 6.01713C104.039 6.09416 103.66 7.30474 104.365 7.94305L108.225 11.4427L107.068 16.6372C106.858 17.5837 107.836 18.332 108.635 17.8258L113 15.0745Z" fill="#F8E329"/>
</svg>
